<svg width="33" height="30" viewBox="0 0 33 30" fill="none" xmlns="http://www.w3.org/2000/svg">
<path d="M15.0564 29.5606C15.0567 29.5609 15.0571 29.5611 15.0575 29.5614C15.1047 29.596 15.1544 29.6288 15.2059 29.66C15.2296 29.6743 15.2546 29.6866 15.2789 29.7001C15.3079 29.716 15.3363 29.7326 15.3664 29.7474C15.3955 29.7617 15.4257 29.774 15.4555 29.7871C15.4829 29.7991 15.5096 29.8117 15.5377 29.8228C15.5682 29.8347 15.5995 29.8448 15.6306 29.8556C15.6599 29.8658 15.6888 29.8766 15.7188 29.8857C15.749 29.8948 15.7798 29.9023 15.8104 29.9103C15.8427 29.9188 15.8744 29.9279 15.9074 29.9352C15.938 29.942 15.9691 29.947 16.0001 29.9527C16.0337 29.959 16.0669 29.9659 16.1012 29.9708C16.137 29.976 16.1732 29.9791 16.2093 29.9829C16.2391 29.986 16.2684 29.9902 16.2986 29.9924C16.4326 30.0021 16.5676 30.0021 16.7016 29.9924C16.7317 29.9902 16.7611 29.9861 16.7909 29.9829C16.827 29.9791 16.8631 29.976 16.899 29.9708C16.9333 29.9659 16.9665 29.959 17.0001 29.9527C17.031 29.947 17.0622 29.942 17.0928 29.9352C17.1257 29.9279 17.1576 29.9188 17.1898 29.9103C17.2204 29.9022 17.2512 29.8948 17.2814 29.8857C17.3114 29.8766 17.3403 29.8658 17.3696 29.8556C17.4007 29.8448 17.432 29.8347 17.4624 29.8228C17.4906 29.8117 17.5173 29.7991 17.5446 29.7871C17.5745 29.774 17.6046 29.7617 17.6337 29.7474C17.6639 29.7326 17.6923 29.716 17.7213 29.7001C17.7456 29.6867 17.7706 29.6743 17.7942 29.66C17.8458 29.6288 17.8955 29.5961 17.9427 29.5614C17.9431 29.5611 17.9434 29.5609 17.9438 29.5606L32.2355 19.0607C33.0328 18.4749 33.0328 17.5251 32.2355 16.9393C31.4382 16.3536 30.1454 16.3536 29.3481 16.9393L18.5417 24.8787V1.49998C18.5417 0.671555 17.6276 0 16.5 0C15.3725 0 14.4584 0.671555 14.4584 1.49998V24.8787L3.65209 16.9393C2.85479 16.3536 1.56203 16.3536 0.764725 16.9393C-0.0325777 17.5251 -0.0325777 18.4749 0.764725 19.0607L15.0564 29.5606Z" fill="white"/>
</svg>
