<svg width="70" height="70" viewBox="0 0 70 70" fill="none" xmlns="http://www.w3.org/2000/svg">
<path d="M35 0.866251C15.6647 0.866251 0 16.5441 0 35.8662C0 51.3384 10.0275 64.4525 23.9247 69.0791C25.6813 69.4094 26.3156 68.3266 26.3156 67.3903C26.3156 66.5591 26.2959 64.3606 26.2828 61.4425C16.5419 63.5512 14.49 56.7372 14.49 56.7372C12.8953 52.7034 10.5941 51.6206 10.5941 51.6206C7.42656 49.4572 10.8456 49.5031 10.8456 49.5031C14.3544 49.7416 16.2006 53.1016 16.2006 53.1016C19.3222 58.4566 24.3906 56.9078 26.3966 56.0066C26.7028 53.7513 27.615 52.2003 28.6081 51.3363C20.8381 50.4591 12.6678 47.4512 12.6678 34.0397C12.6678 30.2094 14.0241 27.09 16.2662 24.64C15.8791 23.7628 14.6934 20.1972 16.5747 15.3759C16.5747 15.3759 19.5038 14.4419 26.1997 18.9656C29.0019 18.1891 31.9769 17.8019 34.9497 17.7822C37.9247 17.8019 40.8975 18.1912 43.6997 18.9656C50.3562 14.4419 53.2831 15.3759 53.2831 15.3759C55.1622 20.1972 53.9766 23.7606 53.6353 24.64C55.8556 27.09 57.2119 30.2116 57.2119 34.0397C57.2119 47.4819 49.0306 50.4459 41.2519 51.3012C42.4681 52.3491 43.6078 54.5037 43.6078 57.7741C43.6078 62.4553 43.5641 66.2266 43.5641 67.3662C43.5641 68.2762 44.1766 69.37 45.9791 69.0178C59.9791 64.4394 69.9956 51.3144 69.9956 35.8641C69.9956 16.5419 54.3309 0.864063 34.9956 0.864063L35 0.866251Z" fill="black"/>
</svg>
