<svg width="70" height="70" viewBox="0 0 70 70" fill="none" xmlns="http://www.w3.org/2000/svg">
<g clip-path="url(#clip0_73_121)">
<path d="M34.9999 0C15.6699 0 0 15.6699 0 34.9999C0 54.33 15.6699 69.9999 34.9999 69.9999C54.33 69.9999 70 54.33 70 34.9999C69.9999 15.6699 54.3297 0 34.9999 0ZM25.6619 51.9208H17.9773V27.0941H25.6619V51.9208ZM21.783 23.8428C19.2733 23.8428 17.2387 21.7917 17.2387 19.2619C17.2387 16.7318 19.2735 14.6808 21.783 14.6808C24.2924 14.6808 26.327 16.7318 26.327 19.2619C26.3271 21.7918 24.2925 23.8428 21.783 23.8428ZM54.4599 51.9208H46.8125V38.8888C46.8125 35.3145 45.4549 33.3193 42.6286 33.3193C39.5526 33.3193 37.9457 35.3973 37.9457 38.8888V51.9208H30.5753V27.0941H37.9457V30.4378C37.9457 30.4378 40.1627 26.3368 45.427 26.3368C50.6915 26.3368 54.46 29.5512 54.46 36.2009L54.4599 51.9208Z" fill="url(#paint0_linear_73_121)"/>
</g>
<defs>
<linearGradient id="paint0_linear_73_121" x1="10.2512" y1="10.2512" x2="59.7486" y2="59.7486" gradientUnits="userSpaceOnUse">
<stop stop-color="#2489BE"/>
<stop offset="1" stop-color="#0575B3"/>
</linearGradient>
<clipPath id="clip0_73_121">
<rect width="70" height="70" fill="white"/>
</clipPath>
</defs>
</svg>
