<svg width="619" height="464" viewBox="0 0 619 464" fill="none" xmlns="http://www.w3.org/2000/svg">
<g clip-path="url(#clip0_9_157)">
<path d="M467.545 369.502C465.85 356.279 465.402 342.881 466.209 329.546L467.545 307.476C460.187 324.434 461.85 346.753 467.545 369.502V369.502Z" fill="#CACACA"/>
<path d="M473.282 373.194C472.466 365.304 472.251 357.345 472.639 349.411L473.282 336.274C469.742 346.368 470.542 359.653 473.282 373.194Z" fill="#CACACA"/>
<path d="M493.103 400.591H450.394V402.806H493.103V400.591Z" fill="#E6E6E6"/>
<path d="M493.046 433.187C478.754 440.038 464.307 440.114 449.699 433.187V417.581C463.762 412.11 478.983 412.11 493.046 417.581V433.187Z" fill="#E6E6E6"/>
<path d="M287.798 184.883C300.612 184.883 310.999 172.85 310.999 158.008C310.999 143.165 300.612 131.133 287.798 131.133C274.985 131.133 264.598 143.165 264.598 158.008C264.598 172.85 274.985 184.883 287.798 184.883Z" fill="#2F2E41"/>
<path d="M294.262 131.873C298.277 131.873 302.223 133.081 305.715 135.377C309.207 137.674 312.124 140.98 314.182 144.974C316.241 148.967 317.369 153.511 317.457 158.161C317.545 162.811 316.59 167.408 314.686 171.502C316.697 168.587 318.162 165.218 318.987 161.611C319.813 158.004 319.98 154.237 319.48 150.55C318.979 146.864 317.82 143.338 316.078 140.199C314.336 137.06 312.049 134.375 309.362 132.317C306.675 130.258 303.647 128.87 300.471 128.242C297.295 127.614 294.041 127.759 290.917 128.668C287.792 129.577 284.865 131.23 282.323 133.522C279.78 135.814 277.677 138.694 276.149 141.979C278.317 138.825 281.072 136.278 284.208 134.528C287.345 132.779 290.781 131.871 294.262 131.873Z" fill="#2F2E41"/>
<path d="M244.444 157.951C282.084 157.951 312.596 122.606 312.596 79.0062C312.596 35.4062 282.084 0.0614929 244.444 0.0614929C206.805 0.0614929 176.293 35.4062 176.293 79.0062C176.293 122.606 206.805 157.951 244.444 157.951Z" fill="#2F2E41"/>
<path d="M190.956 30.0252C202.7 14.7269 219.114 5.31211 236.737 3.76772C254.359 2.22334 271.81 8.67021 285.406 21.7477C284.849 21.134 284.297 20.5154 283.718 19.9191C270.208 6.01881 252.485 -1.0974 234.447 0.13512C216.408 1.36764 199.531 10.848 187.525 26.4917C175.519 42.1354 169.368 62.6618 170.425 83.5575C171.481 104.453 179.658 124.008 193.158 137.922C193.737 138.518 194.332 139.08 194.923 139.649C182.119 125.539 174.547 106.219 173.807 85.766C173.067 65.3127 179.216 45.3263 190.956 30.0252Z" fill="#2F2E41"/>
<path d="M243.867 157.282C268.109 157.282 287.761 134.517 287.761 106.436C287.761 78.3548 268.109 55.5904 243.867 55.5904C219.625 55.5904 199.973 78.3548 199.973 106.436C199.973 134.517 219.625 157.282 243.867 157.282Z" fill="#FED8D8"/>
<path d="M266.29 171.085L219.317 173.531C219.317 173.531 223.238 201.67 197.825 204.346C172.413 207.023 149.31 198.994 140.069 219.065C130.828 239.136 134.811 310.602 134.811 310.602C134.811 310.602 152.138 382.857 165.999 393.561C179.861 404.265 301.148 389.547 301.148 389.547L351.907 315.305L350.188 258.049C349.29 228.151 325.724 205.703 300.343 211.236C299.845 211.344 299.343 211.461 298.838 211.587C298.838 211.587 293.262 206.759 277.963 197.898C268.607 192.48 266.29 171.085 266.29 171.085Z" fill="#B0BEC5"/>
<path d="M164.327 203.008C164.327 203.008 175.491 226.473 170.87 259.925C166.25 293.376 185.636 364.124 185.636 364.124L199.498 360.11C199.498 360.11 190.257 290.531 192.567 274.475C194.877 258.418 195.515 211.037 183.964 203.008C172.413 194.98 164.327 203.008 164.327 203.008Z" fill="#2F2E41"/>
<path d="M298.025 215.312L302.88 363.455L312.121 370.145C312.121 370.145 325.405 207.573 318.474 207.573H304.372C303.538 207.573 302.711 207.763 301.94 208.133C301.169 208.503 300.468 209.045 299.878 209.729C299.288 210.413 298.82 211.224 298.5 212.117C298.181 213.011 298.017 213.968 298.017 214.935C298.017 215.061 298.019 215.186 298.025 215.312Z" fill="#2F2E41"/>
<path d="M191.989 360.779C195.179 360.779 197.765 357.784 197.765 354.089C197.765 350.394 195.179 347.398 191.989 347.398C188.8 347.398 186.214 350.394 186.214 354.089C186.214 357.784 188.8 360.779 191.989 360.779Z" fill="#A9A0AF"/>
<path d="M307.501 367.469C310.691 367.469 313.276 364.474 313.276 360.779C313.276 357.084 310.691 354.089 307.501 354.089C304.311 354.089 301.725 357.084 301.725 360.779C301.725 364.474 304.311 367.469 307.501 367.469Z" fill="#A9A0AF"/>
<path d="M206.326 42.8784V93.7243H216.491L229.428 77.6677L227.696 93.7243H272.629L269.857 77.6677L275.401 93.7243H282.563V42.8784H206.326Z" fill="#2F2E41"/>
<path d="M199.395 103.091C201.309 103.091 202.86 99.7962 202.86 95.7318C202.86 91.6674 201.309 88.3725 199.395 88.3725C197.481 88.3725 195.93 91.6674 195.93 95.7318C195.93 99.7962 197.481 103.091 199.395 103.091Z" fill="#FED8D8"/>
<path d="M288.339 103.091C290.253 103.091 291.804 99.7962 291.804 95.7318C291.804 91.6674 290.253 88.3725 288.339 88.3725C286.425 88.3725 284.874 91.6674 284.874 95.7318C284.874 99.7962 286.425 103.091 288.339 103.091Z" fill="#FED8D8"/>
<path d="M384.812 449.504V454.016C384.814 455.255 384.619 456.483 384.238 457.637C384.069 458.151 383.865 458.648 383.628 459.123C382.877 460.61 381.812 461.842 380.537 462.697C379.261 463.552 377.82 464.001 376.353 464H95.1181C93.6516 464.001 92.21 463.552 90.9348 462.697C89.6596 461.842 88.5945 460.61 87.8439 459.123C87.6065 458.648 87.4022 458.151 87.233 457.637C86.8522 456.483 86.6578 455.255 86.6599 454.016V449.504C86.6596 448.193 86.8781 446.895 87.3027 445.684C87.7274 444.473 88.35 443.372 89.135 442.445C89.92 441.518 90.852 440.783 91.8778 440.281C92.9036 439.779 94.0031 439.52 95.1136 439.52H111.329V437.416C111.329 437.362 111.338 437.308 111.356 437.257C111.373 437.207 111.399 437.161 111.432 437.122C111.464 437.084 111.503 437.053 111.546 437.032C111.589 437.011 111.634 437 111.681 437H120.14C120.233 437 120.323 437.043 120.389 437.121C120.455 437.199 120.492 437.305 120.493 437.415V439.52H125.777V437.416C125.776 437.362 125.785 437.308 125.803 437.257C125.821 437.207 125.847 437.161 125.879 437.122C125.912 437.084 125.951 437.053 125.993 437.032C126.036 437.011 126.082 437 126.128 437H134.587C134.681 437 134.77 437.043 134.837 437.121C134.903 437.199 134.94 437.305 134.94 437.415V439.52H140.23V437.416C140.23 437.362 140.239 437.308 140.257 437.257C140.275 437.207 140.3 437.161 140.333 437.122C140.366 437.084 140.404 437.053 140.447 437.032C140.49 437.011 140.536 437 140.582 437H149.041C149.135 437 149.224 437.043 149.29 437.121C149.356 437.199 149.394 437.305 149.394 437.415V439.52H154.678V437.416C154.678 437.362 154.687 437.308 154.704 437.257C154.722 437.207 154.748 437.161 154.781 437.122C154.813 437.084 154.852 437.053 154.895 437.032C154.937 437.011 154.983 437 155.029 437H163.489C163.582 437 163.672 437.043 163.738 437.121C163.804 437.199 163.841 437.305 163.841 437.415V439.52H169.125V437.416C169.125 437.362 169.134 437.308 169.152 437.257C169.17 437.207 169.195 437.161 169.228 437.122C169.261 437.084 169.299 437.053 169.342 437.032C169.385 437.011 169.431 437 169.477 437H177.936C178.03 437 178.119 437.044 178.185 437.121C178.251 437.199 178.289 437.305 178.289 437.415V439.52H183.579V437.416C183.579 437.362 183.588 437.308 183.606 437.257C183.623 437.207 183.649 437.161 183.682 437.122C183.715 437.084 183.753 437.053 183.796 437.032C183.839 437.011 183.884 437 183.931 437H192.39C192.483 437 192.573 437.044 192.639 437.121C192.705 437.199 192.743 437.305 192.743 437.415V439.52H198.027V437.416C198.027 437.362 198.036 437.308 198.053 437.257C198.071 437.207 198.097 437.161 198.129 437.122C198.162 437.084 198.201 437.053 198.244 437.032C198.286 437.011 198.332 437 198.378 437H264.634C264.68 437 264.726 437.011 264.769 437.031C264.811 437.052 264.85 437.083 264.883 437.121C264.916 437.16 264.942 437.206 264.96 437.256C264.977 437.306 264.987 437.36 264.987 437.415V439.52H270.277V437.416C270.277 437.362 270.286 437.308 270.303 437.257C270.321 437.207 270.347 437.161 270.38 437.122C270.412 437.084 270.451 437.053 270.494 437.032C270.536 437.011 270.582 437 270.628 437H279.088C279.181 437.001 279.27 437.045 279.336 437.123C279.402 437.201 279.44 437.306 279.44 437.416V439.52H284.724V437.416C284.724 437.362 284.733 437.308 284.751 437.257C284.769 437.207 284.794 437.161 284.827 437.122C284.86 437.084 284.899 437.053 284.941 437.032C284.984 437.011 285.03 437 285.076 437H293.535C293.581 437 293.627 437.011 293.67 437.031C293.713 437.052 293.752 437.083 293.784 437.121C293.817 437.16 293.843 437.206 293.861 437.256C293.879 437.306 293.888 437.36 293.888 437.415V439.52H299.172V437.416C299.172 437.362 299.181 437.308 299.199 437.257C299.216 437.207 299.242 437.161 299.275 437.122C299.307 437.084 299.346 437.053 299.389 437.032C299.431 437.011 299.477 437 299.523 437H307.983C308.029 437 308.075 437.011 308.118 437.031C308.16 437.052 308.199 437.083 308.232 437.121C308.265 437.16 308.291 437.206 308.308 437.256C308.326 437.306 308.335 437.36 308.335 437.415V439.52H313.626V437.416C313.626 437.362 313.635 437.308 313.652 437.257C313.67 437.207 313.696 437.161 313.728 437.122C313.761 437.084 313.8 437.053 313.843 437.032C313.885 437.011 313.931 437 313.977 437H322.437C322.529 437.002 322.618 437.046 322.682 437.124C322.747 437.202 322.783 437.307 322.783 437.416V439.52H328.073V437.416C328.073 437.362 328.082 437.308 328.1 437.257C328.117 437.207 328.143 437.161 328.176 437.122C328.209 437.084 328.247 437.053 328.29 437.032C328.333 437.011 328.379 437 328.425 437H336.884C336.93 437 336.976 437.011 337.019 437.031C337.062 437.052 337.1 437.083 337.133 437.121C337.166 437.16 337.192 437.206 337.21 437.256C337.228 437.306 337.237 437.36 337.237 437.415V439.52H342.521V437.416C342.521 437.362 342.53 437.308 342.547 437.257C342.565 437.207 342.591 437.161 342.623 437.122C342.656 437.084 342.695 437.053 342.738 437.032C342.78 437.011 342.826 437 342.872 437H351.332C351.378 437 351.424 437.011 351.466 437.032C351.509 437.052 351.548 437.083 351.581 437.121C351.613 437.16 351.639 437.206 351.657 437.256C351.675 437.306 351.684 437.36 351.684 437.415V439.52H376.353C378.596 439.52 380.747 440.57 382.333 442.442C383.919 444.313 384.811 446.851 384.812 449.499L384.812 449.504Z" fill="#2F2E41"/>
<path d="M361.56 260.518H100.814C99.8711 260.518 98.9378 260.733 98.0671 261.151C97.1964 261.569 96.4052 262.181 95.7388 262.953C95.0723 263.725 94.5437 264.641 94.183 265.65C93.8224 266.659 93.6367 267.74 93.6367 268.832V437.122C93.6367 439.327 94.3928 441.442 95.7387 443.001C97.0847 444.56 98.9101 445.436 100.814 445.436H361.56C363.463 445.436 365.289 444.56 366.634 443.001C367.98 441.442 368.736 439.327 368.736 437.122V268.832C368.736 266.627 367.98 264.512 366.634 262.953C365.289 261.394 363.463 260.518 361.56 260.518Z" fill="#2F2E41"/>
<path d="M231.396 337.733C240.197 337.733 247.332 329.468 247.332 319.273C247.332 309.077 240.197 300.812 231.396 300.812C222.594 300.812 215.459 309.077 215.459 319.273C215.459 329.468 222.594 337.733 231.396 337.733Z" fill="#A9A0AF"/>
<path d="M330.05 197.316L410.5 103.389H448.481V101.912H409.968L409.781 102.131L329.143 196.278L330.05 197.316Z" fill="#3F3D56"/>
<path d="M588.083 64.8262H494.873V74.4476H588.083V64.8262Z" fill="#E06792"/>
<path d="M483.512 80.5312H463.78V57.6735H483.512V80.5312ZM465.055 79.0544H482.238V59.1503H465.055L465.055 79.0544Z" fill="#3F3D56"/>
<path d="M588.083 96.8973H494.873V106.519H588.083V96.8973Z" fill="#E06792" fill-opacity="0.45"/>
<path d="M483.512 112.602H463.78V89.7447H483.512V112.602ZM465.055 111.125H482.238V91.2215H465.055L465.055 111.125Z" fill="#3F3D56"/>
<path d="M588.083 128.968H494.873V138.59H588.083V128.968Z" fill="#FED8D8"/>
<path d="M483.512 144.673H463.78V121.816H483.512V144.673ZM465.055 143.196H482.238V123.292H465.055L465.055 143.196Z" fill="#3F3D56"/>
</g>
<defs>
<clipPath id="clip0_9_157">
<rect width="619" height="464" fill="white"/>
</clipPath>
</defs>
</svg>
