<svg width="1436" height="252" viewBox="0 0 1436 252" fill="none" xmlns="http://www.w3.org/2000/svg">
<path fill-rule="evenodd" clip-rule="evenodd" d="M0 36.4042L39.6 30.4154C80.4 24.4267 159.6 12.4491 240 30.4154C320.4 48.3818 399.6 96.2919 480 102.281C560.4 108.269 639.6 72.3368 720 72.3368C800.4 72.3368 879.6 108.269 960 96.2919C1040.4 84.3144 1119.6 24.4267 1200 6.46035C1280.4 -11.506 1359.6 12.4491 1400.4 24.4267L1440 36.4042V252H1400.4C1359.6 252 1280.4 252 1200 252C1119.6 252 1040.4 252 960 252C879.6 252 800.4 252 720 252C639.6 252 560.4 252 480 252C399.6 252 320.4 252 240 252C159.6 252 80.4 252 39.6 252H0V36.4042Z" fill="#ECECEC"/>
</svg>
