<svg width="1434" height="335" viewBox="0 0 1434 335" fill="none" xmlns="http://www.w3.org/2000/svg">
<g clip-path="url(#clip0_100_200)">
<path d="M1444 286.533L1237.03 267.333L1031.66 272.667L824.684 284.4L619.316 288.667L412.342 271.6L206.973 328.133L0 330.267V164.933H206.973H412.342H619.316H824.684H1031.66H1237.03H1444V286.533Z" fill="#42919C"/>
<path d="M1444 254.533L1237.03 280.133L1031.66 315.333L824.684 286.533L619.316 297.2L412.342 264.133L206.973 289.733L0 260.933V164.933H206.973H412.342H619.316H824.684H1031.66H1237.03H1444V254.533Z" fill="#377F8E"/>
<path d="M1444 271.6L1237.03 256.667L1031.66 276.933L824.684 234.267L619.316 255.6L412.342 299.333L206.973 240.667L0 242.8V164.933H206.973H412.342H619.316H824.684H1031.66H1237.03H1444V271.6Z" fill="#2D6E7F"/>
<path d="M1444 226.8L1237.03 243.867L1031.66 254.533L824.684 259.867L619.316 250.267L412.342 238.533L206.973 236.4L0 262V164.933H206.973H412.342H619.316H824.684H1031.66H1237.03H1444V226.8Z" fill="#245D70"/>
<path d="M1444 254.533L1237.03 217.2L1031.66 247.067L824.684 218.267L619.316 263.067L412.342 262L206.973 257.733L0 251.333V164.933H206.973H412.342H619.316H824.684H1031.66H1237.03H1444V254.533Z" fill="#1C4D61"/>
<path d="M1444 209.733L1237.03 207.6L1031.66 211.867L824.684 242.8L619.316 246L412.342 215.067L206.973 248.133L0 220.4V164.933H206.973H412.342H619.316H824.684H1031.66H1237.03H1444V209.733Z" fill="#153D51"/>
<path d="M1444 212.933H1237.03L1031.66 231.067L824.684 226.8L619.316 220.4L412.342 196.933L206.973 206.533L0 209.733V164.933H206.973H412.342H619.316H824.684H1031.66H1237.03H1444V212.933Z" fill="#0E2E41"/>
<path d="M1444 185.2L1237.03 190.533L1031.66 206.533L824.684 207.6L619.316 205.467L412.342 203.333L206.973 192.667L0 194.8V164.933H206.973H412.342H619.316H824.684H1031.66H1237.03H1444V185.2Z" fill="#071F31"/>
<path d="M1444 186.267L1237.03 195.867L1031.66 179.867L824.684 192.667L619.316 176.667L412.342 185.2L206.973 193.733L0 175.6V164.933H206.973H412.342H619.316H824.684H1031.66H1237.03H1444V186.267Z" fill="#001122"/>
</g>
<g clip-path="url(#clip1_100_200)">
<path d="M-6 48.467L200.97 67.667L406.34 62.333L613.316 50.6L818.684 46.333L1025.66 63.4L1231.03 6.86699L1438 4.73299V170.067L1231.03 170.067L1025.66 170.067L818.684 170.067L613.316 170.067H406.34L200.97 170.067L-6 170.067V48.467Z" fill="#42919C"/>
<path d="M-6 80.4667L200.97 54.867L406.34 19.667L613.316 48.467L818.684 37.8L1025.66 70.8667L1231.03 45.267L1438 74.0667V170.067L1231.03 170.067L1025.66 170.067L818.684 170.067L613.316 170.067H406.34L200.97 170.067L-6 170.067V80.4667Z" fill="#377F8E"/>
<path d="M-6 63.4L200.97 78.3334L406.34 58.067L613.316 100.733L818.684 79.4L1025.66 35.667L1231.03 94.3334L1438 92.2V170.067L1231.03 170.067L1025.66 170.067L818.684 170.067L613.316 170.067H406.34L200.97 170.067L-6 170.067V63.4Z" fill="#2D6E7F"/>
<path d="M-6 108.2L200.97 91.1333L406.34 80.4667L613.316 75.1333L818.684 84.7333L1025.66 96.4667L1231.03 98.6L1438 73V170.067L1231.03 170.067L1025.66 170.067L818.684 170.067L613.316 170.067H406.34L200.97 170.067L-6 170.067V108.2Z" fill="#245D70"/>
<path d="M-6 80.4667L200.97 117.8L406.34 87.9334L613.316 116.733L818.684 71.9333L1025.66 73L1231.03 77.2667L1438 83.6667V170.067L1231.03 170.067L1025.66 170.067L818.684 170.067L613.316 170.067H406.34L200.97 170.067L-6 170.067V80.4667Z" fill="#1C4D61"/>
<path d="M-6 125.267L200.97 127.4L406.34 123.133L613.316 92.2L818.684 89L1025.66 119.933L1231.03 86.8667L1438 114.6V170.067L1231.03 170.067L1025.66 170.067L818.684 170.067L613.316 170.067H406.34L200.97 170.067L-6 170.067V125.267Z" fill="#153D51"/>
<path d="M-6 122.067L200.97 122.067L406.34 103.933L613.316 108.2L818.684 114.6L1025.66 138.067L1231.03 128.467L1438 125.267V170.067L1231.03 170.067L1025.66 170.067L818.684 170.067L613.316 170.067H406.34L200.97 170.067L-6 170.067V122.067Z" fill="#0E2E41"/>
<path d="M-6 149.8L200.97 144.467L406.34 128.467L613.316 127.4L818.684 129.533L1025.66 131.667L1231.03 142.333L1438 140.2V170.067L1231.03 170.067L1025.66 170.067L818.684 170.067L613.316 170.067H406.34L200.97 170.067L-6 170.067V149.8Z" fill="#071F31"/>
<path d="M-6 148.733L200.97 139.133L406.34 155.133L613.316 142.333L818.684 158.333L1025.66 149.8L1231.03 141.267L1438 159.4V170.067L1231.03 170.067L1025.66 170.067L818.684 170.067L613.316 170.067H406.34L200.97 170.067L-6 170.067V148.733Z" fill="#001122"/>
</g>
<defs>
<clipPath id="clip0_100_200">
<rect width="1438" height="169" fill="white" transform="translate(0 166)"/>
</clipPath>
<clipPath id="clip1_100_200">
<rect width="1438" height="169" fill="white" transform="translate(1438 169) rotate(-180)"/>
</clipPath>
</defs>
</svg>
